<?xml version="1.0" standalone="no"?>
<!DOCTYPE svg PUBLIC "-//W3C//DTD SVG 20010904//EN"
 "http://www.w3.org/TR/2001/REC-SVG-20010904/DTD/svg10.dtd">
<svg version="1.0" xmlns="http://www.w3.org/2000/svg"
 width="1280.000000pt" height="1280.000000pt" viewBox="0 0 1280.000000 1280.000000"
 preserveAspectRatio="xMidYMid meet">
<metadata>
Created by potrace 1.15, written by Peter Selinger 2001-2017
</metadata>
<g transform="translate(0.000000,1280.000000) scale(0.100000,-0.100000)"
fill="#000000" stroke="none">
<path d="M6211 12579 c-384 -24 -731 -100 -1076 -236 -1459 -574 -2434 -2134
-2502 -4005 l-6 -178 450 0 450 0 6 168 c31 821 264 1582 665 2167 117 171
214 288 367 440 300 300 638 508 1040 640 457 149 1034 165 1525 41 178 -45
302 -91 485 -181 268 -131 468 -278 690 -506 239 -246 402 -482 563 -819 247
-515 382 -1099 408 -1767 l7 -173 401 1 c221 0 419 3 441 7 l39 7 -2 140 c-16
858 -241 1710 -639 2420 -67 119 -261 407 -347 514 -450 562 -994 947 -1631
1155 -300 97 -560 145 -905 166 -183 11 -247 11 -429 -1z"/>
<path d="M2085 8153 c-241 -50 -371 -112 -501 -236 -119 -113 -198 -262 -235
-442 -17 -81 -26 -6235 -9 -6396 43 -432 258 -720 613 -823 51 -15 138 -30
214 -36 91 -8 1353 -10 4318 -8 l4190 3 90 22 c220 53 376 135 496 260 102
106 153 199 192 352 l22 86 0 3195 0 3195 -41 120 c-95 277 -228 465 -412 586
-106 70 -219 108 -368 124 l-61 7 -8 -69 c-19 -184 -110 -301 -270 -350 -55
-16 -107 -18 -600 -18 -539 0 -540 0 -610 23 -170 57 -265 169 -281 334 l-7
68 -2423 0 -2423 0 -6 -37 c-32 -193 -127 -317 -285 -370 -51 -17 -96 -18
-590 -18 -530 0 -536 0 -594 23 -152 57 -248 184 -291 385 -5 25 -9 27 -53 26
-26 -1 -56 -3 -67 -6z m4471 -2344 c601 -83 1047 -643 985 -1237 -42 -406
-282 -756 -633 -925 l-67 -32 0 -787 -1 -788 -440 0 -440 0 -1 788 0 787 -67
32 c-220 106 -411 299 -522 527 -120 246 -147 526 -78 791 145 555 696 923
1264 844z"/>
</g>
</svg>
